# xmcd
#
# Track frame offsets:
#	151
#	29807
#	56456
#	85930
#	114186
#	147011
#	174197
#	201788
#	234269
#	258648
#
# Disc length: 3753 seconds
#
# Revision: 1
# Processed by: cddbd v1.5.2PL0 Copyright (c) Steve Scherf et al.
# Submitted via: audiograbber 1.83.01
#
DISCID=7e0ea70a
DTITLE=Amy Winehouse - Maximum Amy Winehouse
DYEAR=2007
DGENRE=Vocal
TTITLE0=It's all about Soul
TTITLE1=A London thing
TTITLE2=You're going to know my name
TTITLE3=Molding the Heartache
TTITLE4=Laid bare
TTITLE5=How we feel
TTITLE6=Moving on
TTITLE7=Down with the Girls
TTITLE8=She's trouble
TTITLE9=Looking for the light
EXTD=
EXTT0=
EXTT1=
EXTT2=
EXTT3=
EXTT4=
EXTT5=
EXTT6=
EXTT7=
EXTT8=
EXTT9=
PLAYORDER=
